<svg xmlns="http://www.w3.org/2000/svg" xmlns:xlink="http://www.w3.org/1999/xlink" xmlns:inkscape="http://www.inkscape.org/namespaces/inkscape" version="1.1" width="105" height="105" viewBox="0 0 105 105">
<path transform="matrix(1.00005,0,0,-1,1.4133225,69.831)" stroke-width=".3985" stroke-linecap="butt" stroke-miterlimit="10" stroke-linejoin="miter" fill="none" stroke="#000000" d="M0 34.01608H34.01608V0H0Z"/>
<path transform="matrix(1.00005,0,0,-1,1.4133225,69.831)" stroke-width=".3985" stroke-linecap="butt" stroke-miterlimit="10" stroke-linejoin="miter" fill="none" stroke="#000000" d="M34.01608 34.01608H68.03217V0H34.01608Z"/>
<path transform="matrix(1.00005,0,0,-1,1.4133225,69.831)" stroke-width=".3985" stroke-linecap="butt" stroke-miterlimit="10" stroke-linejoin="miter" fill="none" stroke="#000000" d="M68.03217 34.01608H102.04825V0H68.03217Z"/>
<path transform="matrix(1.00005,0,0,-1,1.4133225,69.831)" stroke-width=".3985" stroke-linecap="butt" stroke-miterlimit="10" stroke-linejoin="miter" fill="none" stroke="#000000" d="M34.01608 68.03217H68.03217V34.01608H34.01608Z"/>
<path transform="matrix(1.00005,0,0,-1,1.4133225,69.831)" stroke-width=".3985" stroke-linecap="butt" stroke-miterlimit="10" stroke-linejoin="miter" fill="none" stroke="#000000" d="M34.01608-34.01608H68.03217V0H34.01608Z"/>
<path transform="matrix(1.00005,0,0,-1,1.4133225,69.831)" d="M8.93687 7.14359C8.93687 8.13399 8.13399 8.93687 7.14359 8.93687 6.15318 8.93687 5.3503 8.13399 5.3503 7.14359 5.3503 6.15318 6.15318 5.3503 7.14359 5.3503 8.13399 5.3503 8.93687 6.15318 8.93687 7.14359ZM7.14359 7.14359"/>
<path transform="matrix(1.00005,0,0,-1,1.4133225,69.831)" d="M8.93687 26.87245C8.93687 27.86287 8.13399 28.66574 7.14359 28.66574 6.15318 28.66574 5.3503 27.86287 5.3503 26.87245 5.3503 25.88205 6.15318 25.07916 7.14359 25.07916 8.13399 25.07916 8.93687 25.88205 8.93687 26.87245ZM7.14359 26.87245"/>
<path transform="matrix(1.00005,0,0,-1,1.4133225,69.831)" d="M28.66574 7.14359C28.66574 8.13399 27.86287 8.93687 26.87245 8.93687 25.88205 8.93687 25.07916 8.13399 25.07916 7.14359 25.07916 6.15318 25.88205 5.3503 26.87245 5.3503 27.86287 5.3503 28.66574 6.15318 28.66574 7.14359ZM26.87245 7.14359"/>
<path transform="matrix(1.00005,0,0,-1,1.4133225,69.831)" d="M28.66574 26.87245C28.66574 27.86287 27.86287 28.66574 26.87245 28.66574 25.88205 28.66574 25.07916 27.86287 25.07916 26.87245 25.07916 25.88205 25.88205 25.07916 26.87245 25.07916 27.86287 25.07916 28.66574 25.88205 28.66574 26.87245ZM26.87245 26.87245"/>
<path transform="matrix(1.00005,0,0,-1,1.4133225,69.831)" d="M42.95296 7.14359C42.95296 8.13399 42.15007 8.93687 41.15967 8.93687 40.16927 8.93687 39.36638 8.13399 39.36638 7.14359 39.36638 6.15318 40.16927 5.3503 41.15967 5.3503 42.15007 5.3503 42.95296 6.15318 42.95296 7.14359ZM41.15967 7.14359"/>
<path transform="matrix(1.00005,0,0,-1,1.4133225,69.831)" d="M42.95296 26.87245C42.95296 27.86287 42.15007 28.66574 41.15967 28.66574 40.16927 28.66574 39.36638 27.86287 39.36638 26.87245 39.36638 25.88205 40.16927 25.07916 41.15967 25.07916 42.15007 25.07916 42.95296 25.88205 42.95296 26.87245ZM41.15967 26.87245"/>
<path transform="matrix(1.00005,0,0,-1,1.4133225,69.831)" d="M62.68182 7.14359C62.68182 8.13399 61.87895 8.93687 60.88853 8.93687 59.89813 8.93687 59.09525 8.13399 59.09525 7.14359 59.09525 6.15318 59.89813 5.3503 60.88853 5.3503 61.87895 5.3503 62.68182 6.15318 62.68182 7.14359ZM60.88853 7.14359"/>
<path transform="matrix(1.00005,0,0,-1,1.4133225,69.831)" d="M62.68182 26.87245C62.68182 27.86287 61.87895 28.66574 60.88853 28.66574 59.89813 28.66574 59.09525 27.86287 59.09525 26.87245 59.09525 25.88205 59.89813 25.07916 60.88853 25.07916 61.87895 25.07916 62.68182 25.88205 62.68182 26.87245ZM60.88853 26.87245"/>
<path transform="matrix(1.00005,0,0,-1,1.4133225,69.831)" d="M42.95296 41.15967C42.95296 42.15007 42.15007 42.95296 41.15967 42.95296 40.16927 42.95296 39.36638 42.15007 39.36638 41.15967 39.36638 40.16927 40.16927 39.36638 41.15967 39.36638 42.15007 39.36638 42.95296 40.16927 42.95296 41.15967ZM41.15967 41.15967"/>
<path transform="matrix(1.00005,0,0,-1,1.4133225,69.831)" d="M42.95296 60.88853C42.95296 61.87895 42.15007 62.68182 41.15967 62.68182 40.16927 62.68182 39.36638 61.87895 39.36638 60.88853 39.36638 59.89813 40.16927 59.09525 41.15967 59.09525 42.15007 59.09525 42.95296 59.89813 42.95296 60.88853ZM41.15967 60.88853"/>
<path transform="matrix(1.00005,0,0,-1,1.4133225,69.831)" d="M62.68182 41.15967C62.68182 42.15007 61.87895 42.95296 60.88853 42.95296 59.89813 42.95296 59.09525 42.15007 59.09525 41.15967 59.09525 40.16927 59.89813 39.36638 60.88853 39.36638 61.87895 39.36638 62.68182 40.16927 62.68182 41.15967ZM60.88853 41.15967"/>
<path transform="matrix(1.00005,0,0,-1,1.4133225,69.831)" d="M62.68182 60.88853C62.68182 61.87895 61.87895 62.68182 60.88853 62.68182 59.89813 62.68182 59.09525 61.87895 59.09525 60.88853 59.09525 59.89813 59.89813 59.09525 60.88853 59.09525 61.87895 59.09525 62.68182 59.89813 62.68182 60.88853ZM60.88853 60.88853"/>
<path transform="matrix(1.00005,0,0,-1,1.4133225,69.831)" d="M42.95296-7.14359C42.95296-6.15318 42.15007-5.3503 41.15967-5.3503 40.16927-5.3503 39.36638-6.15318 39.36638-7.14359 39.36638-8.13399 40.16927-8.93687 41.15967-8.93687 42.15007-8.93687 42.95296-8.13399 42.95296-7.14359ZM41.15967-7.14359"/>
<path transform="matrix(1.00005,0,0,-1,1.4133225,69.831)" d="M42.95296-26.87245C42.95296-25.88205 42.15007-25.07916 41.15967-25.07916 40.16927-25.07916 39.36638-25.88205 39.36638-26.87245 39.36638-27.86287 40.16927-28.66574 41.15967-28.66574 42.15007-28.66574 42.95296-27.86287 42.95296-26.87245ZM41.15967-26.87245"/>
<path transform="matrix(1.00005,0,0,-1,1.4133225,69.831)" d="M62.68182-7.14359C62.68182-6.15318 61.87895-5.3503 60.88853-5.3503 59.89813-5.3503 59.09525-6.15318 59.09525-7.14359 59.09525-8.13399 59.89813-8.93687 60.88853-8.93687 61.87895-8.93687 62.68182-8.13399 62.68182-7.14359ZM60.88853-7.14359"/>
<path transform="matrix(1.00005,0,0,-1,1.4133225,69.831)" d="M62.68182-26.87245C62.68182-25.88205 61.87895-25.07916 60.88853-25.07916 59.89813-25.07916 59.09525-25.88205 59.09525-26.87245 59.09525-27.86287 59.89813-28.66574 60.88853-28.66574 61.87895-28.66574 62.68182-27.86287 62.68182-26.87245ZM60.88853-26.87245"/>
<path transform="matrix(1.00005,0,0,-1,1.4133225,69.831)" d="M76.96906 7.14359C76.96906 8.13399 76.16617 8.93687 75.17577 8.93687 74.18536 8.93687 73.38248 8.13399 73.38248 7.14359 73.38248 6.15318 74.18536 5.3503 75.17577 5.3503 76.16617 5.3503 76.96906 6.15318 76.96906 7.14359ZM75.17577 7.14359"/>
<path transform="matrix(1.00005,0,0,-1,1.4133225,69.831)" d="M76.96906 26.87245C76.96906 27.86287 76.16617 28.66574 75.17577 28.66574 74.18536 28.66574 73.38248 27.86287 73.38248 26.87245 73.38248 25.88205 74.18536 25.07916 75.17577 25.07916 76.16617 25.07916 76.96906 25.88205 76.96906 26.87245ZM75.17577 26.87245"/>
<path transform="matrix(1.00005,0,0,-1,1.4133225,69.831)" d="M96.6979 7.14359C96.6979 8.13399 95.89503 8.93687 94.90462 8.93687 93.91422 8.93687 93.11133 8.13399 93.11133 7.14359 93.11133 6.15318 93.91422 5.3503 94.90462 5.3503 95.89503 5.3503 96.6979 6.15318 96.6979 7.14359ZM94.90462 7.14359"/>
<path transform="matrix(1.00005,0,0,-1,1.4133225,69.831)" d="M96.6979 26.87245C96.6979 27.86287 95.89503 28.66574 94.90462 28.66574 93.91422 28.66574 93.11133 27.86287 93.11133 26.87245 93.11133 25.88205 93.91422 25.07916 94.90462 25.07916 95.89503 25.07916 96.6979 25.88205 96.6979 26.87245ZM94.90462 26.87245"/>
</svg>
